<?xml version="1.0" standalone="no"?>
<!DOCTYPE svg PUBLIC "-//W3C//DTD SVG 20010904//EN"
 "http://www.w3.org/TR/2001/REC-SVG-20010904/DTD/svg10.dtd">
<svg version="1.0" xmlns="http://www.w3.org/2000/svg"
 width="594.000000pt" height="420.000000pt" viewBox="0 0 594.000000 420.000000"
 preserveAspectRatio="xMidYMid meet">

<g transform="translate(0.000000,420.000000) scale(0.100000,-0.100000)"
fill="#000000" stroke="none">
<path d="M2803 3522 c-38 -35 -57 -72 -78 -152 -37 -143 -28 -332 19 -402 12
-18 49 -49 83 -71 l61 -38 41 20 c51 27 52 27 76 -9 11 -16 32 -35 47 -41 29
-12 160 -8 191 5 12 6 17 4 17 -7 0 -9 31 -34 71 -58 108 -63 91 -66 -188 -40
-131 12 -247 23 -259 24 -15 1 -46 -26 -108 -93 l-87 -95 48 -7 c206 -32 247
-57 402 -253 43 -54 65 -73 112 -94 69 -30 77 -54 27 -86 -43 -27 -68 -73 -75
-137 -5 -49 -1 -62 36 -135 22 -45 45 -84 50 -87 5 -3 14 8 21 24 14 34 13 33
58 21 31 -9 32 -9 26 17 -4 15 -26 82 -50 150 l-43 122 55 0 c153 0 304 -62
439 -181 153 -134 241 -180 384 -200 98 -14 162 -7 287 31 l102 31 82 -42 c76
-38 91 -42 184 -48 l101 -6 5 -208 c6 -251 -2 -237 139 -237 106 0 173 23 220
74 l24 26 -110 0 -110 0 -47 36 c-25 21 -49 48 -52 61 -11 41 4 114 41 203 48
116 47 123 -20 154 -90 41 -118 113 -73 186 34 56 65 122 73 159 5 24 48 81
142 188 74 84 136 153 139 153 9 0 59 -34 72 -49 14 -18 16 -89 2 -125 -8 -22
-7 -26 10 -26 11 0 24 9 30 21 9 15 15 18 25 9 20 -17 72 33 86 83 17 64 7
153 -19 180 -20 19 -33 22 -112 22 -85 0 -90 -1 -120 -30 -18 -16 -56 -67 -85
-111 -61 -94 -106 -132 -178 -151 -47 -12 -53 -12 -62 3 -61 99 -89 120 -214
160 -163 52 -154 46 -305 233 -75 94 -142 169 -147 166 -5 -4 -9 5 -9 19 0 30
-17 49 -62 66 -18 7 -34 15 -36 16 -2 1 4 14 13 28 17 25 17 26 -10 36 -14 5
-32 10 -39 10 -15 0 -129 29 -134 35 -2 2 1 13 8 24 10 19 8 21 -25 21 -32 0
-36 2 -30 21 7 19 4 21 -26 17 -19 -3 -42 -9 -53 -13 -16 -7 -17 -6 -7 13 10
19 9 22 -9 22 -13 0 -20 7 -20 20 0 32 -18 24 -84 -40 -35 -33 -66 -60 -70
-60 -4 0 -19 9 -33 20 -34 27 -104 26 -159 -1 -40 -19 -45 -19 -73 -5 -16 9
-83 27 -148 41 -65 14 -129 33 -143 43 -23 17 -25 27 -28 99 -2 62 2 93 17
134 12 29 17 57 13 61 -4 4 -33 -31 -66 -77 -74 -106 -74 -106 -113 -90 -41
17 -68 60 -95 153 -12 39 -25 72 -29 72 -4 0 -20 -12 -36 -28z"/>
<path d="M400 1125 l0 -475 130 0 130 0 0 120 0 120 154 0 c228 0 219 -15 214
390 -3 273 -7 292 -54 310 -14 6 -149 10 -300 10 l-274 0 0 -475z m350 125 l0
-240 -35 0 -35 0 0 240 0 240 35 0 35 0 0 -240z"/>
<path d="M1120 1137 c0 -347 3 -466 12 -475 15 -15 540 -17 568 -2 37 20 40
60 40 506 l0 434 -135 0 -135 0 0 -393 c0 -292 -3 -396 -12 -405 -16 -16 -53
-15 -66 1 -6 7 -13 164 -17 405 l-8 392 -123 0 -124 0 0 -463z"/>
<path d="M1854 1588 c-42 -20 -44 -39 -44 -498 l0 -440 140 0 140 0 0 420 0
420 35 0 35 0 0 -420 0 -420 140 0 140 0 0 420 0 420 35 0 35 0 0 -420 0 -420
135 0 135 0 0 449 c0 427 -1 450 -19 472 l-19 24 -434 2 c-286 1 -440 -2 -454
-9z"/>
<path d="M2870 1125 l0 -475 274 0 c151 0 282 3 291 6 41 16 45 50 45 354 l0
292 -28 28 c-35 35 -103 50 -227 50 l-95 0 0 110 0 110 -130 0 -130 0 0 -475z
m332 118 c16 -15 18 -36 18 -236 0 -191 -2 -223 -17 -239 -21 -24 -39 -23 -57
4 -13 19 -16 59 -16 235 0 200 1 214 20 233 24 24 28 25 52 3z"/>
<path d="M3586 1584 c-14 -14 -16 -71 -16 -475 l0 -459 125 0 125 0 1 58 c1
31 4 82 7 112 7 55 7 55 42 55 l35 0 9 -112 8 -113 124 0 124 0 0 459 c0 404
-2 461 -16 475 -13 14 -53 16 -284 16 -231 0 -271 -2 -284 -16z m324 -120 c6
-14 10 -114 10 -222 0 -215 -7 -247 -50 -247 -43 0 -50 32 -50 241 0 220 7
254 51 254 22 0 32 -6 39 -26z"/>
</g>
</svg>
